
<svg viewBox="0 0 360 360"
     width="360"
     height="360"
     stroke-linejoin="round"
     stroke-linecap="round"
     fill-rule="evenodd"
     fill="none"
     xmlns="http://www.w3.org/2000/svg">
    <!---->
        <rect x="0" y="0" width="45" height="45" fill="#FFC39E" />
        <rect x="45" y="0" width="45" height="45" fill="#B65631" />
        <rect x="90" y="0" width="45" height="45" fill="#FFC39E" />
        <rect x="135" y="0" width="45" height="45" fill="#B65631" />
        <rect x="180" y="0" width="45" height="45" fill="#FFC39E" />
        <rect x="225" y="0" width="45" height="45" fill="#B65631" />
        <rect x="270" y="0" width="45" height="45" fill="#FFC39E" />
        <rect x="315" y="0" width="45" height="45" fill="#B65631" />
        <rect x="0" y="45" width="45" height="45" fill="#B65631" />
        <rect x="45" y="45" width="45" height="45" fill="#FFC39E" />
        <rect x="90" y="45" width="45" height="45" fill="#B65631" />
        <rect x="135" y="45" width="45" height="45" fill="#FFC39E" />
        <rect x="180" y="45" width="45" height="45" fill="#B65631" />
        <rect x="225" y="45" width="45" height="45" fill="#FFC39E" />
        <rect x="270" y="45" width="45" height="45" fill="#B65631" />
        <rect x="315" y="45" width="45" height="45" fill="#FFC39E" />
        <rect x="0" y="90" width="45" height="45" fill="#FFC39E" />
        <rect x="45" y="90" width="45" height="45" fill="#B65631" />
        <rect x="90" y="90" width="45" height="45" fill="#FFC39E" />
        <rect x="135" y="90" width="45" height="45" fill="#B65631" />
        <rect x="180" y="90" width="45" height="45" fill="#FFC39E" />
        <rect x="225" y="90" width="45" height="45" fill="#B65631" />
        <rect x="270" y="90" width="45" height="45" fill="#FFC39E" />
        <rect x="315" y="90" width="45" height="45" fill="#B65631" />
        <rect x="0" y="135" width="45" height="45" fill="#B65631" />
        <rect x="45" y="135" width="45" height="45" fill="#FFC39E" />
        <rect x="90" y="135" width="45" height="45" fill="#B65631" />
        <rect x="135" y="135" width="45" height="45" fill="#FFC39E" />
        <rect x="180" y="135" width="45" height="45" fill="#B65631" />
        <rect x="225" y="135" width="45" height="45" fill="#FFC39E" />
        <rect x="270" y="135" width="45" height="45" fill="#B65631" />
        <rect x="315" y="135" width="45" height="45" fill="#FFC39E" />
        <rect x="0" y="180" width="45" height="45" fill="#FFC39E" />
        <rect x="45" y="180" width="45" height="45" fill="#B65631" />
        <rect x="90" y="180" width="45" height="45" fill="#FFC39E" />
        <rect x="135" y="180" width="45" height="45" fill="#B65631" />
        <rect x="180" y="180" width="45" height="45" fill="#FFC39E" />
        <rect x="225" y="180" width="45" height="45" fill="#B65631" />
        <rect x="270" y="180" width="45" height="45" fill="#FFC39E" />
        <rect x="315" y="180" width="45" height="45" fill="#B65631" />
        <rect x="0" y="225" width="45" height="45" fill="#B65631" />
        <rect x="45" y="225" width="45" height="45" fill="#FFC39E" />
        <rect x="90" y="225" width="45" height="45" fill="#B65631" />
        <rect x="135" y="225" width="45" height="45" fill="#FFC39E" />
        <rect x="180" y="225" width="45" height="45" fill="#B65631" />
        <rect x="225" y="225" width="45" height="45" fill="#FFC39E" />
        <rect x="270" y="225" width="45" height="45" fill="#B65631" />
        <rect x="315" y="225" width="45" height="45" fill="#FFC39E" />
        <rect x="0" y="270" width="45" height="45" fill="#FFC39E" />
        <rect x="45" y="270" width="45" height="45" fill="#B65631" />
        <rect x="90" y="270" width="45" height="45" fill="#FFC39E" />
        <rect x="135" y="270" width="45" height="45" fill="#B65631" />
        <rect x="180" y="270" width="45" height="45" fill="#FFC39E" />
        <rect x="225" y="270" width="45" height="45" fill="#B65631" />
        <rect x="270" y="270" width="45" height="45" fill="#FFC39E" />
        <rect x="315" y="270" width="45" height="45" fill="#B65631" />
        <rect x="0" y="315" width="45" height="45" fill="#B65631" />
        <rect x="45" y="315" width="45" height="45" fill="#FFC39E" />
        <rect x="90" y="315" width="45" height="45" fill="#B65631" />
        <rect x="135" y="315" width="45" height="45" fill="#FFC39E" />
        <rect x="180" y="315" width="45" height="45" fill="#B65631" />
        <rect x="225" y="315" width="45" height="45" fill="#FFC39E" />
        <rect x="270" y="315" width="45" height="45" fill="#B65631" />
        <rect x="315" y="315" width="45" height="45" fill="#FFC39E" />
    {{#items}}
    <g transform="translate({{0}} {{1}})">
        {{{2}}}
    </g>
    {{/items}}
</svg>
